<?xml version="1.0" encoding="UTF-8" ?>
<!DOCTYPE svg PUBLIC "-//W3C//DTD SVG 1.1//EN" "http://www.w3.org/Graphics/SVG/1.1/DTD/svg11.dtd">
<svg width="835pt" height="835pt" viewBox="0 0 835 835" version="1.1" xmlns="http://www.w3.org/2000/svg">
<g id="#ffffffff">
<path fill="#ffffff" stroke="#ffffff" stroke-width="0.09375" opacity="1.00" d=" M 393.48 10.95 C 393.85 10.72 394.61 10.26 394.99 10.04 C 407.82 9.98 420.65 9.96 433.48 10.05 C 437.83 12.82 444.17 9.17 448.52 11.95 C 451.78 12.53 455.74 10.87 458.53 12.96 C 461.14 13.39 464.37 12.03 466.52 13.95 C 468.50 14.00 470.49 14.00 472.48 14.05 C 474.32 15.85 477.18 14.68 479.48 15.05 C 480.74 16.55 482.80 15.85 484.48 16.08 C 486.31 18.17 489.68 15.83 491.52 17.92 C 493.18 18.14 495.20 17.49 496.50 18.90 C 497.50 18.97 498.50 19.03 499.50 19.09 C 500.48 20.32 502.13 19.89 503.49 20.15 C 504.85 21.45 506.78 20.90 508.47 21.09 C 509.80 22.55 512.11 21.46 513.48 22.86 C 513.99 22.93 515.01 23.07 515.52 23.14 C 516.88 24.50 519.11 23.52 520.51 24.84 C 521.84 25.05 523.35 24.82 524.48 25.75 C 525.53 25.93 526.53 26.26 527.50 26.73 C 528.58 26.88 529.58 27.26 530.49 27.86 C 531.00 27.93 532.01 28.07 532.52 28.14 C 533.88 29.50 536.11 28.50 537.48 29.85 C 537.99 29.93 539.00 30.08 539.51 30.16 C 540.72 30.83 542.07 31.15 543.34 31.70 C 544.98 32.56 546.78 33.02 548.48 33.74 C 549.53 33.93 550.53 34.26 551.50 34.73 C 552.50 34.92 553.45 35.24 554.36 35.69 C 555.93 36.61 557.73 36.96 559.37 37.71 C 561.35 38.85 563.65 39.15 565.63 40.30 C 567.25 41.03 569.01 41.43 570.63 42.21 C 571.53 42.74 572.45 43.26 573.37 43.78 C 575.39 44.77 577.60 45.23 579.63 46.22 C 580.53 46.74 581.45 47.26 582.38 47.76 C 583.46 48.24 584.52 48.75 585.61 49.24 C 586.86 50.05 588.24 50.64 589.61 51.25 C 592.22 52.69 594.91 53.98 597.61 55.25 C 598.53 55.75 599.46 56.25 600.40 56.76 C 602.73 57.47 604.48 59.17 606.58 60.31 C 608.16 61.15 609.82 61.85 611.42 62.69 C 613.16 63.57 614.57 64.98 616.41 65.71 C 618.18 66.53 619.56 68.00 621.41 68.71 C 622.96 69.36 624.08 70.76 625.72 71.25 C 626.11 71.63 626.89 72.37 627.28 72.75 C 628.96 73.23 630.03 74.78 631.72 75.25 C 632.11 75.63 632.89 76.38 633.28 76.76 C 634.51 77.04 635.43 77.89 636.35 78.72 C 637.51 79.11 638.45 79.89 639.35 80.72 C 640.50 81.12 641.44 81.89 642.36 82.69 C 644.46 83.41 645.55 85.68 647.72 86.26 C 648.57 87.09 649.42 87.92 650.29 88.74 C 651.96 89.19 653.10 90.56 654.30 91.73 C 656.48 92.31 657.53 94.72 659.74 95.27 C 661.25 96.75 662.73 98.25 664.27 99.72 C 666.83 100.57 668.30 103.02 670.26 104.73 C 674.22 106.11 675.77 110.88 679.73 112.27 C 688.79 121.22 697.72 130.30 706.78 139.24 C 707.46 139.95 707.96 140.78 708.27 141.73 C 710.39 143.94 712.60 146.06 714.72 148.27 C 715.56 150.84 718.02 152.30 719.73 154.26 C 720.36 156.40 722.25 157.72 723.74 159.26 C 724.36 162.01 727.59 162.98 728.28 165.71 C 729.44 166.89 730.81 168.03 731.25 169.71 C 732.07 170.57 732.91 171.43 733.75 172.29 C 734.04 173.51 734.88 174.43 735.70 175.35 C 736.29 176.95 737.52 178.14 738.73 179.29 C 739.27 180.92 740.66 182.05 741.29 183.65 C 742.09 184.56 742.95 185.49 743.24 186.72 C 743.62 187.11 744.37 187.89 744.75 188.28 C 745.24 189.91 746.62 191.04 747.30 192.58 C 747.87 193.97 748.62 195.28 749.72 196.34 C 750.47 198.17 751.99 199.55 752.71 201.41 C 753.53 203.18 754.99 204.57 755.72 206.40 C 756.36 207.92 757.60 209.08 758.31 210.57 C 759.00 211.90 759.66 213.25 760.23 214.64 C 761.09 216.39 762.38 217.87 763.35 219.56 C 763.57 220.07 764.02 221.07 764.24 221.58 C 765.03 222.85 765.62 224.24 766.24 225.61 C 767.22 227.13 767.80 228.87 768.74 230.42 C 768.98 230.91 769.47 231.89 769.72 232.38 C 770.35 233.73 770.93 235.12 771.78 236.38 C 772.77 238.39 773.22 240.60 774.22 242.62 C 775.27 244.09 775.71 245.90 776.79 247.37 C 777.58 248.97 777.93 250.75 778.72 252.36 C 779.58 253.95 779.97 255.72 780.70 257.37 C 781.85 259.35 782.12 261.66 783.32 263.63 C 783.75 264.54 784.07 265.50 784.27 266.51 C 784.77 267.77 785.15 269.09 785.71 270.35 C 786.56 271.98 786.99 273.80 787.75 275.48 C 787.87 276.58 788.24 277.58 788.86 278.48 C 788.93 278.99 789.07 280.01 789.15 280.51 C 789.73 281.41 790.11 282.41 790.27 283.50 C 790.72 284.46 791.05 285.46 791.27 286.51 C 791.73 287.46 792.06 288.46 792.27 289.51 C 793.35 290.99 792.56 293.10 793.86 294.49 C 793.93 294.99 794.07 296.01 794.14 296.52 C 795.50 297.87 794.48 300.12 795.86 301.48 C 795.93 301.99 796.06 303.01 796.13 303.52 C 797.29 304.52 796.88 306.15 797.14 307.49 C 798.26 308.53 797.89 310.13 798.16 311.48 C 799.49 312.89 798.46 315.17 799.91 316.53 C 800.09 318.20 799.55 320.15 800.85 321.52 C 801.10 322.87 800.66 324.54 801.93 325.53 C 801.97 326.84 802.00 328.15 802.07 329.47 C 803.53 330.76 802.85 332.79 803.08 334.48 C 805.17 336.30 802.80 339.71 804.95 341.52 C 805.21 343.50 804.27 345.94 805.94 347.52 C 806.00 349.50 805.99 351.49 806.05 353.48 C 807.95 355.64 806.60 358.86 807.04 361.48 C 809.12 364.26 807.47 368.22 808.04 371.48 C 809.92 373.46 808.64 376.52 809.00 378.98 C 809.40 381.76 807.99 385.19 809.95 387.51 C 810.04 400.50 810.03 413.49 809.95 426.48 C 808.07 428.47 809.34 431.53 809.00 433.99 C 808.59 436.77 810.00 440.21 808.04 442.53 C 807.48 445.79 809.11 449.73 807.05 452.52 C 806.98 454.83 807.01 457.16 806.95 459.48 C 805.13 461.32 806.31 464.17 805.95 466.47 C 804.27 468.05 805.21 470.50 804.94 472.50 C 802.79 474.28 805.18 477.70 803.08 479.52 C 802.86 481.19 803.53 483.23 802.07 484.53 C 802.00 485.83 801.97 487.15 801.93 488.47 C 800.40 489.80 801.58 492.18 800.09 493.53 C 799.89 495.20 800.44 497.14 799.16 498.52 C 798.88 499.85 799.30 501.50 798.10 502.50 C 798.02 503.49 797.95 504.49 797.90 505.50 C 796.44 506.83 797.52 509.12 796.14 510.49 C 796.07 511.00 795.93 512.01 795.86 512.52 C 794.48 513.87 795.50 516.12 794.14 517.49 C 794.07 517.99 793.93 519.01 793.86 519.52 C 792.56 520.89 793.35 523.00 792.27 524.49 C 792.05 525.53 791.72 526.53 791.27 527.50 C 791.06 528.54 790.72 529.53 790.27 530.50 C 790.05 531.53 789.72 532.53 789.27 533.50 C 789.06 534.54 788.72 535.54 788.27 536.50 C 788.05 537.53 787.72 538.52 787.28 539.48 C 787.00 540.95 786.35 542.31 785.70 543.66 C 785.15 544.91 784.77 546.22 784.27 547.49 C 784.07 548.49 783.75 549.44 783.32 550.37 C 782.13 552.33 781.86 554.66 780.69 556.64 C 780.16 557.85 779.82 559.13 779.31 560.36 C 778.15 562.33 777.82 564.63 776.74 566.63 C 776.49 567.12 775.99 568.09 775.74 568.58 C 775.25 569.52 774.75 570.45 774.23 571.38 C 773.21 573.38 772.77 575.61 771.78 577.63 C 771.24 578.53 770.73 579.45 770.24 580.39 C 769.64 581.76 769.00 583.12 768.26 584.43 C 768.02 584.92 767.52 585.89 767.28 586.38 C 766.76 587.45 766.23 588.51 765.76 589.61 C 764.78 591.13 764.16 592.83 763.31 594.42 C 762.41 596.15 761.06 597.59 760.24 599.37 C 759.12 602.33 757.37 604.94 755.72 607.59 C 754.85 609.69 753.15 611.29 752.28 613.40 C 751.89 614.55 751.05 615.43 750.29 616.36 C 749.49 618.16 748.02 619.56 747.27 621.40 C 746.89 622.55 746.05 623.44 745.28 624.35 C 744.87 625.50 744.09 626.45 743.29 627.35 C 742.67 628.94 741.25 630.06 740.75 631.72 C 740.37 632.11 739.63 632.89 739.26 633.28 C 738.67 635.44 736.40 636.53 735.70 638.65 C 734.88 639.55 734.04 640.48 733.76 641.71 C 732.91 642.56 732.07 643.42 731.25 644.29 C 730.72 646.50 728.24 647.51 727.75 649.74 C 726.26 651.27 724.36 652.59 723.74 654.74 C 722.26 656.27 720.36 657.59 719.73 659.74 C 718.03 661.70 715.56 663.15 714.72 665.73 C 712.49 668.48 709.08 670.37 707.72 673.74 C 698.43 683.10 689.09 692.43 679.73 701.73 C 675.77 703.12 674.22 707.87 670.27 709.28 C 668.73 710.73 667.26 712.26 665.73 713.72 C 662.57 714.61 661.43 718.37 658.29 719.27 C 657.12 720.46 655.95 721.77 654.30 722.28 C 653.10 723.44 651.96 724.79 650.29 725.27 C 649.11 726.45 647.95 727.78 646.29 728.28 C 645.14 729.47 643.94 730.69 642.36 731.30 C 641.44 732.09 640.50 732.88 639.35 733.28 C 638.42 734.08 637.52 734.97 636.28 735.24 C 635.89 735.62 635.11 736.38 634.72 736.76 C 633.49 737.04 632.55 737.88 631.65 738.71 C 630.04 739.31 628.92 740.75 627.28 741.25 C 626.89 741.63 626.11 742.37 625.72 742.75 C 624.08 743.23 622.97 744.64 621.41 745.29 C 619.29 746.14 617.70 747.85 615.59 748.71 C 613.28 750.10 611.09 751.65 608.60 752.75 C 605.96 753.55 604.07 755.60 601.62 756.75 C 599.57 757.68 597.55 758.66 595.58 759.74 C 595.09 759.98 594.11 760.47 593.63 760.72 C 592.25 761.33 590.89 761.97 589.60 762.75 C 587.59 763.71 585.53 764.61 583.62 765.76 C 582.25 766.36 580.85 766.92 579.63 767.78 C 577.60 768.76 575.39 769.22 573.38 770.22 C 572.45 770.73 571.54 771.25 570.63 771.79 C 569.01 772.57 567.24 772.94 565.63 773.71 C 563.64 774.83 561.35 775.15 559.37 776.29 C 557.73 777.05 555.93 777.38 554.36 778.31 C 553.44 778.75 552.49 779.06 551.50 779.27 C 550.53 779.72 549.53 780.06 548.49 780.27 C 547.22 780.77 545.90 781.15 544.66 781.70 C 543.31 782.35 541.95 782.99 540.47 783.28 C 539.52 783.73 538.52 784.06 537.49 784.27 C 536.00 785.35 533.89 784.57 532.52 785.86 C 532.01 785.93 531.00 786.09 530.49 786.16 C 529.21 786.82 527.78 787.13 526.52 787.84 C 526.01 787.92 524.99 788.06 524.48 788.13 C 523.46 789.28 521.84 788.88 520.52 789.16 C 519.11 790.46 516.89 789.50 515.52 790.86 C 515.01 790.93 514.00 791.07 513.49 791.14 C 512.11 792.52 509.81 791.44 508.47 792.91 C 506.79 793.09 504.85 792.54 503.48 793.84 C 502.13 794.08 500.53 793.72 499.49 794.86 C 498.13 795.11 496.45 794.65 495.47 795.94 C 494.15 795.97 492.83 796.00 491.52 796.06 C 489.71 798.18 486.31 795.81 484.48 797.92 C 482.80 798.12 480.75 797.46 479.47 798.94 C 477.48 798.99 475.50 798.99 473.52 799.05 C 471.40 801.38 467.58 798.60 465.47 800.96 C 462.85 801.38 459.62 800.04 457.47 801.95 C 454.49 802.03 451.50 801.96 448.52 802.05 C 447.43 803.52 445.49 802.84 443.97 803.02 C 440.82 803.00 437.67 802.95 434.52 803.05 C 433.43 804.50 431.53 803.86 430.02 804.02 C 418.37 803.94 406.71 804.07 395.06 803.96 C 394.66 803.73 393.87 803.28 393.48 803.05 C 389.16 802.92 384.84 803.08 380.52 802.95 C 377.73 800.88 373.78 802.51 370.53 801.96 C 368.38 800.03 365.14 801.38 362.53 800.96 C 360.69 799.13 357.82 800.32 355.53 799.95 C 353.68 798.14 350.82 799.31 348.52 798.95 C 347.00 797.00 344.01 798.98 342.49 797.06 C 340.49 796.78 338.06 797.69 336.47 796.07 C 335.15 796.00 333.83 795.97 332.52 795.94 C 331.54 794.66 329.87 795.11 328.52 794.84 C 327.10 793.48 324.80 794.54 323.47 793.07 C 322.15 793.00 320.84 792.97 319.53 792.93 C 318.20 791.43 315.88 792.53 314.51 791.14 C 314.00 791.07 312.98 790.94 312.47 790.87 C 311.47 789.69 309.84 790.10 308.51 789.84 C 307.09 788.60 305.00 789.32 303.50 788.27 C 302.45 788.06 301.45 787.73 300.50 787.27 C 299.41 787.11 298.41 786.73 297.51 786.14 C 297.00 786.07 295.99 785.93 295.48 785.86 C 294.10 784.57 291.99 785.34 290.50 784.27 C 289.46 784.06 288.47 783.73 287.53 783.28 C 286.04 783.00 284.68 782.35 283.34 781.70 C 282.09 781.14 280.77 780.77 279.51 780.27 C 278.47 780.06 277.48 779.73 276.54 779.28 C 275.06 778.98 273.70 778.36 272.36 777.72 C 270.74 776.92 268.94 776.60 267.37 775.72 C 265.75 774.93 263.94 774.60 262.37 773.72 C 260.75 772.93 258.97 772.57 257.36 771.79 C 256.45 771.25 255.54 770.73 254.62 770.22 C 252.60 769.23 250.39 768.76 248.38 767.78 C 246.89 766.74 245.12 766.22 243.61 765.25 C 241.59 764.29 239.54 763.38 237.62 762.25 C 236.25 761.63 234.87 761.04 233.61 760.24 C 232.24 759.64 230.87 759.03 229.61 758.24 C 228.24 757.63 226.89 757.00 225.57 756.31 C 224.09 755.58 222.90 754.40 221.43 753.69 C 219.82 752.86 218.18 752.12 216.57 751.31 C 214.83 750.42 213.42 749.01 211.59 748.29 C 210.07 747.62 208.92 746.37 207.42 745.70 C 206.02 745.11 204.72 744.36 203.66 743.28 C 202.04 742.69 200.94 741.23 199.28 740.75 C 198.89 740.37 198.11 739.62 197.72 739.24 C 196.49 738.95 195.56 738.09 194.65 737.29 C 193.07 736.65 191.92 735.33 190.35 734.71 C 189.45 733.89 188.52 733.10 187.35 732.72 C 186.43 731.89 185.52 731.03 184.29 730.76 C 183.43 729.91 182.57 729.07 181.71 728.25 C 179.50 727.73 178.50 725.26 176.29 724.75 C 175.43 723.91 174.57 723.07 173.71 722.25 C 171.50 721.71 170.47 719.26 168.26 718.73 C 166.74 717.25 165.26 715.74 163.73 714.28 C 161.16 713.42 159.70 710.97 157.74 709.27 C 153.77 707.88 152.23 703.12 148.27 701.73 C 138.90 692.43 129.57 683.10 120.28 673.74 C 118.87 669.77 114.13 668.22 112.72 664.27 C 111.26 662.74 109.75 661.25 108.28 659.74 C 107.64 657.60 105.74 656.28 104.26 654.74 C 103.61 651.99 100.42 651.01 99.72 648.29 C 98.54 647.11 97.22 645.95 96.72 644.29 C 95.55 643.10 94.20 641.95 93.74 640.28 C 93.37 639.89 92.63 639.11 92.26 638.72 C 91.70 636.52 89.29 635.47 88.74 633.28 C 88.36 632.89 87.62 632.11 87.24 631.72 C 86.97 630.48 86.10 629.55 85.29 628.65 C 84.65 627.07 83.35 625.91 82.71 624.36 C 81.94 623.43 81.11 622.55 80.72 621.41 C 79.99 619.55 78.48 618.16 77.72 616.34 C 76.65 615.27 75.87 613.98 75.30 612.59 C 74.62 611.07 73.37 609.92 72.72 608.41 C 71.99 606.57 70.56 605.17 69.70 603.43 C 69.24 602.47 68.76 601.52 68.25 600.60 C 67.53 598.26 65.83 596.52 64.69 594.42 C 64.00 593.08 63.34 591.73 62.71 590.37 C 62.47 589.88 61.98 588.91 61.74 588.43 C 60.80 586.87 60.23 585.13 59.24 583.61 C 58.64 582.23 58.02 580.86 57.27 579.57 C 57.02 579.09 56.52 578.12 56.26 577.63 C 55.19 575.64 54.80 573.39 53.78 571.38 C 52.74 569.89 52.26 568.10 51.22 566.63 C 50.20 564.60 49.83 562.33 48.69 560.36 C 48.16 559.14 47.85 557.85 47.30 556.64 C 46.39 555.06 46.06 553.25 45.28 551.63 C 44.39 550.01 44.05 548.19 43.25 546.55 C 43.00 545.05 42.38 543.68 41.69 542.35 C 41.23 541.44 40.91 540.48 40.74 539.49 C 40.20 538.16 39.83 536.77 39.16 535.51 C 39.09 535.00 38.93 533.99 38.85 533.49 C 38.26 532.57 37.89 531.58 37.73 530.49 C 37.27 529.54 36.93 528.54 36.73 527.50 C 36.27 526.54 35.94 525.53 35.73 524.49 C 34.64 523.01 35.43 520.89 34.14 519.52 C 34.07 519.01 33.93 518.00 33.86 517.49 C 32.50 516.12 33.50 513.87 32.14 512.51 C 32.07 512.00 31.94 510.98 31.87 510.47 C 30.70 509.46 31.11 507.84 30.84 506.52 C 29.51 505.11 30.53 502.84 29.10 501.50 C 29.03 500.49 28.97 499.49 28.90 498.50 C 27.11 496.93 28.86 494.11 27.15 492.49 C 26.88 491.13 27.33 489.46 26.08 488.48 C 25.87 486.79 26.52 484.77 25.07 483.47 C 25.02 482.15 24.98 480.83 24.93 479.53 C 23.30 477.94 24.21 475.50 23.95 473.52 C 21.78 471.72 24.22 468.27 22.05 466.49 C 22.00 464.49 22.00 462.51 21.95 460.52 C 20.04 458.36 21.39 455.13 20.96 452.52 C 18.33 449.47 21.66 444.54 19.05 441.48 C 18.80 436.82 19.30 432.10 18.83 427.47 L 18.05 426.48 C 17.92 414.65 18.06 402.83 17.98 391.01 C 18.14 389.48 17.49 387.57 18.95 386.48 C 19.19 381.81 18.71 377.11 19.16 372.47 L 19.96 371.48 C 20.52 368.21 18.88 364.26 20.96 361.48 C 21.39 358.86 20.05 355.63 21.95 353.48 C 22.00 351.49 22.00 349.50 22.06 347.52 C 23.71 345.95 22.78 343.50 23.05 341.52 C 25.20 339.72 22.82 336.31 24.92 334.48 C 25.13 332.80 24.48 330.77 25.92 329.48 C 26.09 327.79 25.55 325.86 26.84 324.48 C 27.12 323.12 26.67 321.45 27.93 320.48 C 27.98 319.15 28.01 317.83 28.07 316.52 C 29.33 315.54 28.88 313.86 29.15 312.51 C 30.47 311.10 29.54 308.89 30.84 307.48 C 31.10 306.14 30.71 304.53 31.87 303.52 C 31.94 303.01 32.07 301.99 32.14 301.48 C 33.51 300.12 32.49 297.87 33.86 296.51 C 33.93 296.00 34.06 294.98 34.13 294.48 C 35.29 293.47 34.89 291.85 35.16 290.52 C 35.74 289.59 36.11 288.59 36.27 287.50 C 36.73 286.54 37.07 285.53 37.27 284.49 C 37.80 283.16 38.17 281.77 38.84 280.51 C 38.91 280.01 39.07 278.99 39.15 278.49 C 39.75 277.58 40.12 276.58 40.26 275.49 C 40.97 273.78 41.45 271.99 42.30 270.34 C 42.83 269.09 43.21 267.79 43.72 266.53 C 44.00 265.06 44.63 263.70 45.27 262.36 C 46.07 260.74 46.39 258.92 47.30 257.35 C 47.84 256.14 48.17 254.85 48.69 253.64 C 49.83 251.67 50.20 249.40 51.22 247.37 C 52.27 245.90 52.73 244.10 53.78 242.63 C 54.79 240.60 55.19 238.36 56.27 236.37 C 56.52 235.88 57.02 234.91 57.27 234.42 C 58.02 233.12 58.64 231.76 59.24 230.38 C 60.58 228.21 61.43 225.79 62.75 223.61 C 64.22 219.60 67.05 216.46 68.75 212.58 C 68.98 212.08 69.43 211.07 69.66 210.57 C 70.60 208.85 71.97 207.42 72.71 205.59 C 73.36 204.07 74.64 202.93 75.28 201.41 C 76.00 199.54 77.53 198.17 78.28 196.34 C 79.37 195.28 80.12 193.97 80.70 192.58 C 81.39 191.06 82.66 189.91 83.29 188.36 C 84.09 187.43 84.97 186.52 85.24 185.28 C 85.62 184.89 86.38 184.11 86.75 183.72 C 87.05 182.50 87.89 181.57 88.69 180.64 C 89.29 179.04 90.53 177.86 91.74 176.71 C 92.06 175.50 92.89 174.56 93.70 173.64 C 94.29 172.05 95.52 170.85 96.73 169.71 C 97.20 168.04 98.55 166.89 99.72 165.70 C 100.41 163.60 102.25 162.25 103.75 160.73 C 104.38 157.98 107.62 157.01 108.27 154.26 C 109.96 152.30 112.43 150.84 113.28 148.27 C 115.50 145.52 118.92 143.64 120.27 140.27 C 129.57 130.90 138.90 121.56 148.28 112.27 C 152.23 110.86 153.78 106.13 157.73 104.72 C 159.26 103.26 160.74 101.75 162.26 100.28 C 165.43 99.40 166.55 95.61 169.71 94.74 C 170.57 93.91 171.43 93.08 172.29 92.25 C 173.97 91.82 175.10 90.43 176.30 89.28 C 178.47 88.68 179.53 86.32 181.70 85.73 C 182.89 84.55 184.04 83.20 185.73 82.73 C 186.12 82.36 186.89 81.62 187.28 81.25 C 188.93 80.75 190.05 79.32 191.64 78.71 C 192.56 77.89 193.49 77.04 194.72 76.76 C 195.11 76.38 195.89 75.63 196.28 75.25 C 197.96 74.78 199.03 73.22 200.72 72.75 C 201.11 72.37 201.89 71.63 202.28 71.25 C 204.18 70.60 205.52 68.98 207.41 68.28 C 209.18 67.47 210.57 66.00 212.41 65.28 C 214.17 64.46 215.59 63.06 217.36 62.23 C 218.75 61.67 220.09 61.00 221.42 60.31 C 222.90 59.60 224.09 58.41 225.57 57.69 C 227.17 56.86 228.85 56.18 230.39 55.24 C 231.47 54.75 232.53 54.24 233.61 53.76 C 236.22 52.31 238.91 51.03 241.60 49.75 C 242.88 48.97 244.24 48.34 245.61 47.76 C 246.54 47.25 247.46 46.74 248.38 46.22 C 250.39 45.23 252.61 44.77 254.63 43.78 C 255.54 43.26 256.45 42.74 257.36 42.21 C 258.97 41.42 260.75 41.06 262.37 40.29 C 264.35 39.14 266.66 38.85 268.64 37.69 C 269.85 37.16 271.14 36.86 272.35 36.30 C 273.69 35.63 275.05 35.00 276.54 34.73 C 277.82 34.20 279.16 33.81 280.45 33.27 C 281.94 33.00 283.31 32.36 284.66 31.70 C 285.92 31.15 287.28 30.83 288.49 30.16 C 289.00 30.08 290.01 29.93 290.52 29.85 C 291.88 28.50 294.12 29.50 295.48 28.14 C 295.99 28.07 297.01 27.92 297.51 27.84 C 298.78 27.16 300.21 26.84 301.49 26.16 C 301.99 26.08 303.01 25.93 303.52 25.86 C 304.89 24.51 307.11 25.47 308.52 24.16 C 309.85 23.89 311.47 24.30 312.48 23.13 C 312.99 23.06 314.01 22.93 314.51 22.86 C 315.88 21.45 318.20 22.57 319.53 21.07 C 320.84 21.02 322.16 20.99 323.48 20.93 C 324.45 19.67 326.12 20.12 327.48 19.84 C 328.89 18.51 331.17 19.53 332.53 18.09 C 334.20 17.88 336.23 18.52 337.52 17.07 C 339.51 16.78 341.94 17.71 343.53 16.07 C 344.84 16.02 346.15 15.98 347.47 15.93 C 349.34 14.16 352.17 15.31 354.47 14.95 C 356.31 13.13 359.17 14.32 361.47 13.96 C 363.89 11.50 368.10 14.51 370.53 12.04 C 373.78 11.48 377.73 13.11 380.52 11.05 C 384.84 10.92 389.16 11.08 393.48 10.95 M 394.48 41.95 C 390.16 42.08 385.84 41.92 381.52 42.05 C 379.04 44.05 375.45 42.54 372.52 43.04 C 370.10 45.50 365.89 42.50 363.47 44.95 C 361.17 45.32 358.34 44.14 356.49 45.94 C 354.49 46.22 352.05 45.30 350.47 46.93 C 349.15 46.98 347.83 47.01 346.52 47.06 C 344.71 49.16 341.39 46.89 339.50 48.86 C 338.13 49.12 336.45 48.66 335.48 49.94 C 334.16 49.99 332.84 50.02 331.53 50.07 C 330.21 51.59 327.84 50.42 326.50 51.90 C 325.50 51.96 324.50 52.04 323.51 52.11 C 322.16 53.54 319.88 52.47 318.51 53.86 C 318.00 53.93 316.99 54.07 316.48 54.14 C 315.12 55.52 312.87 54.49 311.51 55.86 C 311.00 55.93 309.98 56.07 309.47 56.14 C 308.11 57.44 305.98 56.64 304.51 57.73 C 303.46 57.94 302.45 58.27 301.50 58.73 C 300.41 58.88 299.41 59.25 298.51 59.85 C 298.01 59.93 297.00 60.09 296.49 60.16 C 295.23 60.82 293.85 61.19 292.55 61.73 C 291.05 61.99 289.68 62.62 288.35 63.31 C 287.44 63.76 286.49 64.08 285.49 64.27 C 284.22 64.78 282.90 65.16 281.65 65.69 C 279.66 66.84 277.36 67.15 275.37 68.29 C 273.50 69.22 271.27 69.40 269.62 70.79 C 267.60 71.77 265.39 72.22 263.38 73.22 C 261.90 74.27 260.09 74.73 258.62 75.78 C 256.60 76.78 254.39 77.22 252.38 78.22 C 251.46 78.75 250.54 79.26 249.61 79.76 C 248.52 80.24 247.46 80.77 246.36 81.23 C 244.60 82.09 243.13 83.39 241.43 84.34 C 240.93 84.57 239.92 85.02 239.42 85.24 C 238.47 85.75 237.52 86.25 236.58 86.76 C 236.07 86.98 235.07 87.43 234.56 87.66 C 232.86 88.61 231.39 89.92 229.63 90.77 C 227.84 91.50 225.96 92.22 224.68 93.74 C 222.82 94.45 221.46 96.00 219.59 96.72 C 218.05 97.37 216.91 98.67 215.35 99.29 C 214.43 100.10 213.51 100.96 212.28 101.24 C 211.89 101.62 211.11 102.38 210.73 102.75 C 209.49 103.05 208.55 103.89 207.65 104.72 C 206.49 105.12 205.54 105.89 204.65 106.71 C 203.05 107.32 201.94 108.75 200.29 109.25 C 199.42 110.08 198.57 110.92 197.71 111.75 C 195.51 112.27 194.48 114.70 192.30 115.27 C 191.10 116.44 189.97 117.80 188.30 118.27 C 187.10 119.45 185.95 120.81 184.26 121.27 C 182.29 122.95 180.85 125.44 178.27 126.28 C 176.74 127.74 175.26 129.25 173.74 130.72 C 168.71 133.03 166.29 138.96 161.27 141.28 C 156.37 146.05 151.61 150.97 146.71 155.74 C 145.80 156.56 145.09 157.57 144.73 158.74 C 141.94 161.62 139.05 164.39 136.27 167.28 C 135.39 170.44 131.60 171.57 130.73 174.73 C 129.06 176.71 126.57 178.13 125.74 180.70 C 124.91 181.57 124.08 182.43 123.26 183.29 C 122.58 186.01 119.40 187.00 118.73 189.73 C 118.36 190.12 117.63 190.89 117.26 191.28 C 116.68 193.44 114.41 194.53 113.70 196.64 C 112.90 197.56 112.05 198.49 111.76 199.71 C 110.92 200.57 110.08 201.42 109.25 202.29 C 108.75 203.94 107.32 205.05 106.71 206.65 C 105.94 207.55 105.11 208.44 104.72 209.60 C 103.98 211.44 102.50 212.83 101.71 214.64 C 100.94 215.55 100.12 216.45 99.71 217.59 C 98.40 220.30 96.32 222.54 95.32 225.43 C 94.41 227.16 93.05 228.60 92.25 230.40 C 92.01 230.90 91.52 231.89 91.28 232.39 C 90.43 235.02 88.38 236.93 87.26 239.40 C 87.01 239.90 86.53 240.88 86.28 241.37 C 85.65 242.73 85.04 244.11 84.24 245.39 C 83.63 246.75 83.07 248.14 82.22 249.38 C 81.21 251.38 80.79 253.61 79.78 255.62 C 78.77 257.12 78.21 258.87 77.23 260.39 C 76.19 262.39 75.83 264.65 74.71 266.62 C 73.75 268.48 73.62 270.74 72.20 272.37 C 71.60 273.71 71.04 275.08 70.74 276.54 C 69.98 278.21 69.60 280.03 68.70 281.65 C 68.15 282.90 67.78 284.22 67.27 285.50 C 67.12 286.58 66.75 287.58 66.15 288.49 C 66.07 288.99 65.92 290.01 65.84 290.51 C 65.16 291.77 64.80 293.16 64.27 294.49 C 64.07 295.53 63.73 296.54 63.27 297.50 C 63.12 298.58 62.74 299.58 62.14 300.49 C 62.07 300.99 61.93 302.01 61.86 302.52 C 60.48 303.87 61.52 306.13 60.14 307.48 C 60.07 307.99 59.94 309.01 59.87 309.52 C 58.69 310.52 59.11 312.15 58.85 313.49 C 57.73 314.53 58.10 316.14 57.85 317.49 C 56.74 318.54 57.09 320.13 56.84 321.48 C 55.54 322.89 56.46 325.10 55.15 326.51 C 54.88 327.86 55.32 329.53 54.08 330.52 C 53.87 332.20 54.52 334.23 53.07 335.53 C 53.02 336.84 52.99 338.16 52.94 339.48 C 50.80 341.29 53.20 344.71 51.06 346.51 C 51.01 348.17 50.99 349.83 50.94 351.49 C 48.79 353.28 51.21 356.73 49.05 358.51 C 48.99 360.83 49.01 363.16 48.95 365.48 C 46.35 368.54 49.66 373.46 47.05 376.52 C 46.95 379.68 47.00 382.84 47.02 386.00 C 46.87 387.51 47.51 389.42 46.05 390.52 C 45.92 401.68 46.06 412.85 45.98 424.01 C 46.13 425.52 45.49 427.43 46.95 428.53 C 47.04 431.67 47.00 434.82 46.98 437.97 C 47.14 439.49 46.48 441.42 47.95 442.52 C 48.04 445.50 47.96 448.49 48.05 451.48 C 49.96 453.62 48.60 456.85 49.05 459.47 C 50.73 461.05 49.78 463.49 50.06 465.50 C 52.21 467.27 49.79 470.72 51.94 472.50 C 52.21 474.50 51.30 476.90 52.91 478.53 C 53.14 480.19 52.48 482.22 53.91 483.53 C 54.11 485.19 53.54 487.15 54.85 488.51 C 55.10 489.85 54.74 491.45 55.85 492.51 C 56.09 493.85 55.73 495.46 56.86 496.51 C 57.11 497.85 56.67 499.50 57.91 500.49 C 57.97 501.49 58.03 502.49 58.10 503.50 C 59.54 504.82 58.47 507.11 59.86 508.48 C 59.93 508.99 60.07 510.00 60.14 510.51 C 61.50 511.87 60.49 514.11 61.86 515.48 C 61.93 515.99 62.07 517.00 62.15 517.51 C 62.75 518.41 63.12 519.41 63.26 520.51 C 63.80 521.82 64.15 523.22 64.84 524.49 C 64.92 524.99 65.07 526.01 65.15 526.51 C 65.75 527.41 66.12 528.41 66.27 529.51 C 66.80 530.80 67.19 532.15 67.73 533.45 C 67.99 534.94 68.63 536.30 69.30 537.65 C 69.84 538.89 70.21 540.20 70.72 541.46 C 71.05 542.90 71.61 544.27 72.19 545.63 C 73.63 547.25 73.76 549.51 74.72 551.37 C 75.82 553.35 76.21 555.60 77.22 557.62 C 78.07 558.85 78.63 560.24 79.24 561.61 C 80.78 563.70 81.04 566.35 82.22 568.62 C 83.25 570.11 83.79 571.87 84.74 573.42 C 84.98 573.91 85.47 574.89 85.72 575.38 C 86.23 576.45 86.77 577.52 87.23 578.64 C 88.09 580.39 89.39 581.86 90.34 583.56 C 90.57 584.07 91.02 585.08 91.25 585.58 C 91.75 586.51 92.24 587.46 92.70 588.42 C 93.40 589.90 94.59 591.09 95.32 592.57 C 96.28 595.12 97.91 597.28 99.30 599.58 C 99.88 600.97 100.63 602.28 101.72 603.34 C 102.31 604.91 103.63 606.05 104.29 607.59 C 105.01 609.44 106.50 610.83 107.29 612.64 C 108.10 613.55 108.95 614.48 109.26 615.71 C 110.47 616.85 111.70 618.04 112.30 619.64 C 113.10 620.56 113.95 621.49 114.25 622.72 C 115.08 623.57 115.92 624.42 116.75 625.29 C 117.04 626.51 117.90 627.42 118.70 628.35 C 119.50 630.99 122.57 632.01 123.26 634.71 C 124.08 635.56 124.91 636.42 125.74 637.29 C 126.62 640.45 130.41 641.56 131.27 644.74 C 132.96 646.70 135.42 648.14 136.27 650.72 C 139.10 654.19 143.31 656.64 145.27 660.73 C 150.57 666.10 155.90 671.43 161.27 676.73 C 165.69 679.01 168.47 683.56 172.27 686.72 C 174.84 687.56 176.30 690.03 178.26 691.73 C 180.85 692.55 182.29 695.03 184.26 696.73 C 185.95 697.17 187.10 698.54 188.29 699.72 C 189.95 700.21 191.12 701.53 192.29 702.72 C 194.47 703.31 195.53 705.68 197.71 706.27 C 198.86 707.46 200.05 708.70 201.65 709.30 C 202.56 710.09 203.50 710.95 204.72 711.24 C 205.11 711.62 205.89 712.38 206.28 712.76 C 207.50 713.04 208.43 713.88 209.36 714.71 C 210.92 715.34 212.08 716.65 213.65 717.29 C 214.54 718.09 215.49 718.89 216.66 719.27 C 217.71 720.36 219.03 721.11 220.41 721.71 C 221.55 722.12 222.44 722.92 223.36 723.71 C 225.16 724.51 226.58 725.95 228.39 726.77 C 228.90 726.99 229.92 727.43 230.43 727.65 C 232.66 729.18 234.92 730.60 237.39 731.74 C 238.75 732.35 240.10 732.99 241.42 733.69 C 242.90 734.41 244.11 735.56 245.57 736.35 C 246.07 736.57 247.08 737.02 247.58 737.24 C 249.11 738.22 250.88 738.73 252.37 739.78 C 254.39 740.76 256.60 741.23 258.62 742.21 C 259.85 743.07 261.25 743.62 262.62 744.24 C 264.70 745.77 267.35 746.03 269.62 747.22 C 271.69 748.82 274.40 748.98 276.63 750.29 C 278.27 751.03 280.06 751.38 281.64 752.31 C 282.55 752.76 283.51 753.07 284.52 753.25 C 286.20 753.99 288.01 754.42 289.65 755.29 C 290.91 755.83 292.22 756.21 293.49 756.73 C 294.58 756.87 295.58 757.24 296.48 757.85 C 296.99 757.93 298.00 758.07 298.51 758.15 C 299.41 758.74 300.41 759.11 301.50 759.27 C 302.45 759.72 303.45 760.06 304.50 760.27 C 305.99 761.34 308.10 760.56 309.48 761.86 C 309.99 761.93 311.01 762.06 311.52 762.13 C 312.52 763.28 314.14 762.88 315.48 763.16 C 316.40 763.73 317.41 764.10 318.50 764.26 C 320.00 765.33 322.09 764.60 323.52 765.84 C 324.86 766.08 326.46 765.73 327.51 766.85 C 328.86 767.11 330.54 766.65 331.52 767.94 C 332.84 767.97 334.15 768.00 335.48 768.06 C 336.45 769.33 338.13 768.87 339.49 769.14 C 341.39 771.09 344.70 768.85 346.52 770.94 C 347.84 770.97 349.15 771.00 350.48 771.06 C 352.28 773.20 355.73 770.77 357.52 772.96 C 359.82 773.32 362.68 772.12 364.52 773.95 C 367.13 774.39 370.36 773.04 372.52 774.95 C 375.17 775.02 377.83 774.97 380.48 775.05 L 381.48 775.84 C 385.78 776.27 390.14 775.82 394.47 776.05 C 394.87 776.28 395.66 776.74 396.05 776.97 C 407.39 777.07 418.73 776.94 430.07 777.02 C 431.56 776.86 433.46 777.48 434.53 776.05 C 438.84 775.92 443.16 776.08 447.47 775.95 C 450.23 773.41 454.78 776.59 457.53 774.04 C 460.14 773.60 463.37 774.96 465.52 773.05 C 467.50 772.99 469.49 772.99 471.48 772.95 C 473.27 770.80 476.68 773.18 478.52 771.08 C 480.18 770.85 482.22 771.52 483.50 770.07 C 485.17 770.00 486.84 769.98 488.52 769.93 C 489.47 768.64 491.14 769.11 492.49 768.85 C 493.84 767.53 495.79 768.10 497.47 767.92 C 498.47 766.68 500.12 767.10 501.49 766.84 C 502.89 765.53 505.10 766.45 506.52 765.16 C 507.84 764.88 509.47 765.29 510.48 764.13 C 510.99 764.06 512.01 763.93 512.52 763.86 C 513.87 762.48 516.12 763.50 517.49 762.14 C 517.99 762.07 519.01 761.93 519.52 761.86 C 520.89 760.57 523.00 761.34 524.49 760.27 C 525.54 760.06 526.54 759.73 527.49 759.26 C 528.57 759.11 529.57 758.74 530.48 758.15 C 530.99 758.07 532.00 757.91 532.51 757.84 C 533.77 757.16 535.16 756.80 536.49 756.26 C 537.48 756.07 538.43 755.76 539.35 755.31 C 540.68 754.62 542.04 753.99 543.54 753.72 C 544.79 753.20 546.10 752.83 547.35 752.30 C 548.93 751.39 550.73 751.04 552.38 750.29 C 554.59 748.96 557.31 748.83 559.38 747.21 C 561.39 746.23 563.60 745.77 565.62 744.78 C 566.53 744.25 567.45 743.74 568.39 743.25 C 570.62 742.04 572.99 741.16 575.38 740.31 C 576.72 739.63 578.10 739.03 579.39 738.24 C 580.74 737.63 582.10 737.00 583.42 736.31 C 584.90 735.59 586.08 734.40 587.57 733.69 C 589.16 732.83 590.86 732.19 592.42 731.24 C 592.92 731.02 593.93 730.57 594.44 730.35 C 595.88 729.56 597.09 728.41 598.57 727.69 C 599.52 727.22 600.47 726.76 601.43 726.30 C 602.55 725.86 603.44 725.05 604.36 724.28 C 605.53 723.88 606.48 723.10 607.33 722.22 C 608.44 721.74 609.54 721.24 610.67 720.78 C 611.52 719.88 612.46 719.02 613.72 718.76 C 614.11 718.38 614.89 717.62 615.28 717.24 C 616.50 716.95 617.42 716.09 618.35 715.29 C 619.94 714.66 621.07 713.24 622.72 712.75 C 623.11 712.37 623.89 711.62 624.27 711.25 C 625.49 710.94 626.42 710.10 627.36 709.30 C 628.95 708.70 630.13 707.46 631.30 706.27 C 632.96 705.79 634.11 704.45 635.29 703.27 C 637.47 702.69 638.51 700.29 640.71 699.74 C 641.56 698.91 642.42 698.08 643.29 697.26 C 645.86 696.43 647.29 693.95 649.26 692.27 C 652.43 691.40 653.56 687.61 656.73 686.72 C 659.95 683.62 663.04 680.38 666.27 677.28 C 667.21 676.96 668.04 676.46 668.76 675.78 C 673.40 671.07 678.08 666.40 682.79 661.75 C 683.46 661.03 683.96 660.20 684.28 659.27 C 687.05 656.39 689.94 653.61 692.72 650.74 C 693.55 648.14 696.05 646.71 697.73 644.73 C 698.61 641.57 702.36 640.43 703.28 637.30 C 704.43 636.09 705.82 634.96 706.24 633.27 C 707.72 631.73 709.62 630.41 710.27 628.28 C 710.63 627.89 711.37 627.11 711.73 626.72 C 712.20 625.04 713.54 623.88 714.74 622.71 C 715.06 621.49 715.88 620.55 716.70 619.64 C 717.28 618.03 718.53 616.86 719.74 615.70 C 720.04 614.48 720.89 613.55 721.71 612.65 C 722.33 611.09 723.60 609.93 724.30 608.42 C 724.88 607.03 725.60 605.70 726.72 604.66 C 727.30 603.08 728.61 601.94 729.30 600.42 C 730.31 597.88 732.51 596.06 733.23 593.37 C 734.06 591.60 735.41 590.16 736.30 588.43 C 736.75 587.46 737.24 586.51 737.75 585.58 C 737.98 585.07 738.43 584.07 738.66 583.56 C 739.42 582.11 740.58 580.91 741.30 579.43 C 741.75 578.47 742.23 577.53 742.75 576.61 C 743.23 575.52 743.76 574.45 744.28 573.38 C 744.52 572.89 745.01 571.91 745.26 571.42 C 745.73 570.47 746.24 569.53 746.78 568.62 C 747.94 566.34 748.25 563.70 749.75 561.57 C 749.99 561.07 750.46 560.08 750.70 559.58 C 750.96 559.09 751.48 558.12 751.74 557.64 C 752.82 555.63 753.15 553.34 754.30 551.37 C 755.03 549.74 755.43 547.99 756.20 546.37 C 757.32 544.96 757.86 543.18 758.26 541.45 C 759.01 539.78 759.40 537.97 760.31 536.36 C 760.74 535.44 761.06 534.49 761.27 533.50 C 761.72 532.53 762.05 531.53 762.27 530.49 C 762.73 529.54 763.07 528.54 763.27 527.50 C 763.73 526.54 764.06 525.54 764.27 524.50 C 764.72 523.54 765.05 522.54 765.27 521.50 C 765.72 520.54 766.06 519.54 766.28 518.50 C 766.72 517.54 767.05 516.53 767.27 515.49 C 768.36 514.01 767.55 511.88 768.86 510.52 C 768.93 510.01 769.07 509.00 769.14 508.49 C 770.51 507.11 769.46 504.83 770.89 503.50 C 770.95 502.49 771.02 501.49 771.10 500.50 C 772.52 499.15 771.49 496.88 772.84 495.49 C 773.09 494.13 772.72 492.53 773.86 491.49 C 774.11 490.13 773.65 488.45 774.94 487.48 C 774.97 486.15 775.00 484.84 775.07 483.53 C 776.52 482.23 775.86 480.19 776.07 478.52 C 778.18 476.70 775.80 473.28 777.94 471.49 C 778.21 469.49 777.29 467.05 778.94 465.47 C 779.21 463.48 778.28 461.04 779.95 459.48 C 780.01 457.16 779.98 454.84 780.05 452.52 C 782.11 449.73 780.48 445.78 781.04 442.52 L 781.84 441.53 C 782.28 437.22 781.81 432.85 782.05 428.52 C 782.28 428.14 782.74 427.36 782.97 426.97 C 783.02 414.82 783.04 402.67 782.95 390.52 L 782.17 389.53 C 781.70 385.22 782.19 380.85 781.95 376.52 C 779.88 373.73 781.51 369.78 780.96 366.53 C 779.03 364.38 780.39 361.14 779.95 358.53 C 778.27 356.96 779.21 354.50 778.94 352.51 C 776.78 350.72 779.21 347.27 777.05 345.49 C 776.78 343.49 777.68 341.07 776.09 339.47 C 775.85 337.80 776.53 335.75 775.07 334.47 C 775.00 333.15 774.97 331.83 774.94 330.52 C 773.65 329.54 774.11 327.86 773.86 326.51 C 772.72 325.46 773.08 323.86 772.84 322.51 C 771.49 321.11 772.52 318.84 771.10 317.50 C 771.02 316.50 770.95 315.50 770.89 314.51 C 769.46 313.16 770.51 310.88 769.14 309.51 C 769.07 309.00 768.93 307.99 768.86 307.48 C 767.56 306.10 768.34 303.99 767.26 302.51 C 767.11 301.41 766.73 300.41 766.15 299.51 C 766.07 299.00 765.93 297.99 765.85 297.49 C 765.25 296.58 764.87 295.58 764.73 294.49 C 764.26 293.54 763.92 292.54 763.73 291.50 C 763.26 290.54 762.92 289.54 762.73 288.50 C 762.26 287.54 761.92 286.54 761.73 285.49 C 761.21 284.22 760.83 282.90 760.30 281.65 C 759.41 280.02 759.00 278.22 758.26 276.54 C 757.95 275.09 757.39 273.72 756.80 272.38 C 755.14 270.33 755.04 267.58 753.70 265.37 C 752.96 263.73 752.57 261.96 751.75 260.36 C 751.49 259.88 750.99 258.91 750.74 258.43 C 750.25 257.47 749.75 256.54 749.22 255.62 C 748.22 253.60 747.76 251.38 746.78 249.37 C 746.24 248.45 745.73 247.53 745.24 246.61 C 744.75 245.52 744.23 244.46 743.76 243.39 C 742.15 240.33 740.70 237.22 738.69 234.42 C 737.85 232.82 737.13 231.17 736.31 229.57 C 735.59 228.09 734.40 226.91 733.69 225.43 C 733.22 224.48 732.76 223.52 732.31 222.57 C 731.59 221.08 730.37 219.92 729.71 218.41 C 728.99 216.55 727.49 215.16 726.71 213.35 C 725.92 212.44 725.10 211.56 724.72 210.40 C 724.00 208.52 722.39 207.17 721.74 205.28 C 721.37 204.89 720.63 204.11 720.26 203.73 C 719.80 202.04 718.44 200.89 717.26 199.71 C 716.93 198.50 716.09 197.56 715.30 196.64 C 714.58 194.53 712.31 193.44 711.74 191.27 C 711.37 190.89 710.63 190.12 710.26 189.73 C 709.64 187.58 707.72 186.26 706.25 184.74 C 705.83 183.03 704.43 181.90 703.28 180.70 C 702.36 177.56 698.60 176.43 697.72 173.26 C 696.24 171.74 694.74 170.26 693.28 168.73 C 691.27 164.05 685.72 161.94 683.72 157.27 C 678.43 151.90 673.10 146.57 667.74 141.28 C 663.31 139.00 660.53 134.44 656.73 131.28 C 654.14 130.44 652.71 127.95 650.73 126.27 C 648.14 125.44 646.70 122.96 644.74 121.27 C 643.04 120.82 641.89 119.44 640.70 118.27 C 638.52 117.69 637.47 115.31 635.30 114.73 C 634.10 113.56 632.96 112.20 631.29 111.73 C 630.11 110.54 628.95 109.20 627.28 108.73 C 626.89 108.36 626.11 107.62 625.72 107.25 C 624.06 106.75 622.95 105.32 621.36 104.71 C 620.44 103.90 619.51 103.11 618.35 102.72 C 617.43 101.89 616.50 101.05 615.27 100.75 C 614.89 100.38 614.11 99.63 613.72 99.25 C 612.08 98.76 610.96 97.37 609.42 96.70 C 608.03 96.11 606.69 95.39 605.66 94.28 C 603.82 93.52 602.42 92.03 600.61 91.23 C 600.09 91.01 599.07 90.57 598.56 90.35 C 597.11 89.56 595.89 88.42 594.42 87.69 C 592.83 86.84 591.13 86.20 589.61 85.25 C 587.27 84.53 585.51 82.83 583.42 81.69 C 582.08 81.00 580.73 80.35 579.37 79.72 C 578.89 79.47 577.91 78.98 577.42 78.74 C 575.29 77.26 572.65 76.94 570.38 75.78 C 568.89 74.73 567.09 74.27 565.62 73.22 C 563.61 72.22 561.39 71.77 559.38 70.78 C 557.31 69.16 554.57 69.04 552.37 67.69 C 551.15 67.16 549.85 66.85 548.65 66.30 C 547.01 65.43 545.20 64.99 543.51 64.25 C 542.50 64.09 541.54 63.78 540.65 63.31 C 539.31 62.63 537.94 62.00 536.47 61.72 C 535.52 61.26 534.53 60.93 533.50 60.73 C 532.54 60.26 531.54 59.93 530.49 59.73 C 529.16 59.20 527.77 58.85 526.51 58.16 C 526.00 58.08 524.99 57.93 524.48 57.86 C 523.11 56.49 520.87 57.50 519.52 56.14 C 519.01 56.07 517.99 55.93 517.48 55.86 C 516.12 54.49 513.87 55.51 512.52 54.14 C 512.01 54.07 510.99 53.93 510.49 53.86 C 509.10 52.51 506.88 53.47 505.48 52.16 C 504.13 51.91 502.53 52.27 501.49 51.15 C 500.13 50.88 498.45 51.34 497.48 50.06 C 496.15 50.01 494.83 49.98 493.53 49.94 C 492.54 48.66 490.86 49.12 489.50 48.86 C 487.60 46.90 484.31 49.14 482.48 47.08 C 480.80 46.86 478.78 47.54 477.50 46.08 C 475.83 46.01 474.15 45.99 472.49 45.93 C 470.36 43.64 466.59 46.37 464.48 44.05 C 462.16 43.99 459.84 44.01 457.52 43.95 C 454.77 41.40 450.22 44.60 447.48 42.05 C 444.33 41.95 441.18 42.00 438.03 42.02 C 436.50 41.86 434.57 42.52 433.48 41.05 C 421.99 40.92 410.51 41.06 399.02 40.98 C 397.50 41.15 395.57 40.48 394.48 41.95 Z" />
<path fill="#ffffff" stroke="#ffffff" stroke-width="0.09375" opacity="1.00" d=" M 384.14 239.23 C 403.07 238.69 422.05 239.16 441.00 239.00 C 444.75 239.14 448.97 238.31 452.23 240.66 C 454.95 242.44 456.15 245.83 456.00 248.98 C 455.98 269.99 456.04 291.01 455.97 312.02 C 456.13 316.83 451.85 321.12 447.04 320.96 C 427.70 321.06 408.35 320.95 389.01 321.01 C 386.45 320.99 383.70 321.15 381.43 319.75 C 378.29 318.14 376.83 314.42 377.00 311.03 C 377.02 289.97 376.94 268.90 377.04 247.84 C 377.01 243.76 380.08 239.90 384.14 239.23 Z" />
<path fill="#ffffff" stroke="#ffffff" stroke-width="0.09375" opacity="1.00" d=" M 258.32 240.19 C 278.85 239.74 299.41 240.12 319.96 240.00 C 323.37 239.80 327.15 241.27 328.74 244.45 C 330.17 246.69 329.99 249.45 330.01 252.00 C 329.95 272.37 330.07 292.75 329.96 313.13 C 330.06 317.87 325.89 322.07 321.14 321.95 C 300.72 322.04 280.30 322.02 259.88 321.96 C 255.12 322.06 250.93 317.89 251.04 313.13 C 250.97 291.72 250.97 270.31 251.04 248.90 C 250.96 244.73 254.17 240.81 258.32 240.19 Z" />
<path fill="#ffffff" stroke="#ffffff" stroke-width="0.09375" opacity="1.00" d=" M 256.18 368.23 C 276.45 367.69 296.76 368.16 317.05 367.99 C 320.72 367.70 324.99 368.92 326.75 372.45 C 328.18 374.67 327.96 377.43 328.02 379.97 C 327.95 400.34 328.07 420.71 327.96 441.08 C 328.10 445.88 323.86 450.08 319.07 449.96 C 298.71 450.02 278.35 450.03 258.00 449.96 C 253.18 450.13 248.91 445.90 249.04 441.09 C 248.95 420.04 249.02 398.98 249.00 377.93 C 248.62 373.49 251.66 368.92 256.18 368.23 Z" />
<path fill="#ffffff" stroke="#ffffff" stroke-width="0.09375" opacity="1.00" d=" M 385.13 369.23 C 404.40 368.68 423.73 369.17 443.03 368.99 C 446.42 369.11 450.26 368.45 453.17 370.64 C 455.95 372.35 457.12 375.80 457.00 378.94 C 456.97 400.00 457.06 421.06 456.96 442.12 C 457.12 447.34 452.14 451.51 447.05 451.00 C 427.03 450.98 407.00 451.04 386.98 450.97 C 382.17 451.11 377.90 446.90 378.04 442.08 C 377.97 420.71 377.97 399.33 378.04 377.95 C 377.94 373.83 381.04 369.93 385.13 369.23 Z" />
<path fill="#ffffff" stroke="#ffffff" stroke-width="0.09375" opacity="1.00" d=" M 512.18 369.23 C 532.77 368.70 553.42 369.15 574.03 369.00 C 579.12 368.46 584.10 372.66 583.96 377.87 C 584.03 399.28 584.03 420.69 583.96 442.09 C 584.09 446.88 579.86 451.08 575.08 450.96 C 554.69 451.02 534.29 451.03 513.90 450.96 C 509.14 451.08 504.93 446.89 505.04 442.13 C 504.93 421.75 505.05 401.37 504.99 381.00 C 504.24 376.01 506.69 370.03 512.18 369.23 Z" />
<path fill="#ffffff" stroke="#ffffff" stroke-width="0.09375" opacity="1.00" d=" M 385.14 497.23 C 405.74 496.70 426.38 497.15 446.99 497.00 C 452.11 496.45 457.12 500.65 456.96 505.90 C 457.03 527.30 457.02 548.70 456.96 570.09 C 457.09 574.88 452.85 579.10 448.06 578.96 C 427.70 579.02 407.34 579.02 386.98 578.97 C 382.17 579.11 377.90 574.87 378.03 570.06 C 377.98 548.70 377.97 527.33 378.04 505.97 C 377.94 501.83 381.04 497.92 385.14 497.23 Z" />
<path fill="#ffffff" stroke="#ffffff" stroke-width="0.09375" opacity="1.00" d=" M 513.16 497.23 C 532.42 496.69 551.72 497.16 571.00 496.99 C 574.18 497.11 577.69 496.50 580.55 498.26 C 583.73 499.83 585.16 503.59 585.00 506.98 C 585.01 527.00 584.98 547.02 585.02 567.03 C 584.95 569.54 585.19 572.29 583.77 574.50 C 582.18 577.72 578.40 579.18 574.97 579.00 C 555.64 579.01 536.32 578.98 517.00 579.01 C 511.14 579.98 505.29 575.10 506.00 569.03 C 506.02 548.01 505.95 526.98 506.04 505.96 C 505.95 501.83 509.05 497.90 513.16 497.23 Z" />
</g>
</svg>
