<?xml version="1.0" standalone="no"?>
<!DOCTYPE svg PUBLIC "-//W3C//DTD SVG 20010904//EN"
 "http://www.w3.org/TR/2001/REC-SVG-20010904/DTD/svg10.dtd">
<svg version="1.0" xmlns="http://www.w3.org/2000/svg"
 width="426.000000pt" height="110.000000pt" viewBox="0 0 426.000000 110.000000"
 preserveAspectRatio="xMidYMid meet">
<metadata>
Created by potrace 1.16, written by Peter Selinger 2001-2019
</metadata>
<g transform="translate(0.000000,110.000000) scale(0.100000,-0.100000)"
fill="#000000" stroke="none">
<path d="M540 782 c0 -32 5 -63 12 -70 7 -7 30 -12 53 -12 53 0 65 13 65 72 0
56 -15 68 -84 68 l-46 0 0 -58z"/>
<path d="M716 824 c-18 -18 -21 -76 -6 -105 8 -15 21 -19 58 -19 27 0 53 5 60
12 7 7 12 33 12 60 0 37 -4 50 -19 58 -29 15 -87 12 -105 -6z"/>
<path d="M1064 825 c-3 -8 -4 -95 -2 -193 2 -149 6 -182 21 -205 34 -53 61
-62 194 -66 l123 -3 -2 238 -3 239 -37 3 -38 3 0 -200 0 -201 -68 0 c-59 0
-72 3 -90 23 -21 22 -22 32 -22 200 l0 177 -35 0 c-22 0 -38 -6 -41 -15z"/>
<path d="M1467 833 c-4 -3 -7 -91 -7 -195 0 -206 6 -234 55 -256 14 -7 41 -12
60 -12 33 0 35 2 35 34 0 30 -3 35 -27 38 -46 5 -53 34 -53 226 l0 172 -28 0
c-16 0 -32 -3 -35 -7z"/>
<path d="M2418 835 c-5 -5 -8 -111 -8 -237 l0 -228 40 0 40 0 0 195 0 195 65
0 c57 0 69 -3 90 -25 25 -24 25 -27 25 -195 l0 -170 41 0 41 0 -4 183 c-3 202
-10 227 -65 260 -25 14 -60 20 -145 24 -62 3 -116 2 -120 -2z"/>
<path d="M1657 692 c-31 -32 -57 -61 -57 -65 0 -4 14 -7 30 -7 l30 0 0 -88 c0
-96 10 -121 60 -147 16 -8 45 -15 65 -15 33 0 35 2 35 35 0 31 -3 35 -25 35
-46 0 -65 32 -65 110 l0 70 45 0 c45 0 45 0 45 35 0 35 0 35 -45 35 -43 0 -45
1 -45 30 0 17 -4 30 -8 30 -4 0 -33 -26 -65 -58z"/>
<path d="M3207 692 c-31 -32 -57 -61 -57 -65 0 -4 14 -7 30 -7 l30 0 0 -85 c0
-46 5 -95 11 -109 14 -31 65 -56 113 -56 34 0 36 1 36 35 0 30 -3 35 -23 35
-12 0 -33 7 -45 16 -19 13 -22 24 -22 90 l0 74 45 0 c45 0 45 0 45 35 0 35 0
35 -45 35 -43 0 -45 1 -45 30 0 17 -4 30 -8 30 -4 0 -33 -26 -65 -58z"/>
<path d="M2895 686 c-126 -56 -126 -250 -1 -307 54 -25 92 -24 146 4 108 54
122 209 25 282 -43 34 -122 43 -170 21z m108 -67 c55 -25 68 -113 23 -157 -55
-55 -147 -17 -149 61 -2 80 59 127 126 96z"/>
<path d="M3495 686 c-97 -42 -126 -188 -54 -271 47 -54 124 -69 199 -39 44 18
50 32 21 58 -17 16 -25 16 -56 6 -97 -32 -167 79 -99 159 40 48 113 40 100
-12 -6 -25 -30 -37 -78 -37 -25 0 -28 -4 -28 -31 l0 -31 65 4 c53 3 70 9 91
29 29 29 40 83 25 122 -19 50 -118 73 -186 43z"/>
<path d="M1897 670 c-36 -28 -47 -76 -47 -197 l0 -103 40 0 40 0 0 113 c0 75
4 117 12 125 7 7 36 12 65 12 l53 0 0 35 0 35 -69 0 c-54 0 -74 -4 -94 -20z"/>
<path d="M2100 655 l0 -35 74 0 c94 0 106 -13 106 -112 l0 -68 -54 0 c-60 0
-88 19 -69 48 12 20 71 28 86 13 20 -20 27 -12 27 28 0 36 -2 39 -35 45 -49
10 -100 -2 -130 -30 -36 -33 -36 -110 1 -145 23 -22 35 -24 135 -27 l109 -4 0
121 c0 66 -5 131 -11 144 -19 42 -59 57 -153 57 l-86 0 0 -35z"/>
<path d="M552 661 c-9 -5 -12 -25 -10 -62 l3 -54 60 0 60 0 3 48 c2 27 -2 55
-9 63 -12 15 -86 19 -107 5z"/>
<path d="M710 651 c-11 -22 -13 -71 -4 -95 9 -23 119 -23 128 0 10 27 7 89 -6
102 -7 7 -33 12 -60 12 -37 0 -50 -4 -58 -19z"/>
<path d="M882 658 c-14 -14 -16 -86 -3 -106 5 -9 25 -12 62 -10 l54 3 3 54 c2
37 -1 57 -10 62 -20 13 -92 11 -106 -3z"/>
<path d="M710 481 c-14 -27 -13 -84 2 -99 7 -7 33 -12 58 -12 57 0 70 12 70
65 0 53 -13 65 -72 65 -37 0 -50 -4 -58 -19z"/>
<path d="M882 488 c-13 -13 -16 -75 -6 -102 5 -12 21 -16 66 -16 l59 0 -3 63
-3 62 -50 3 c-30 2 -55 -2 -63 -10z"/>
</g>
</svg>
