<?xml version="1.0" encoding="UTF-8" ?>
<!DOCTYPE svg PUBLIC "-//W3C//DTD SVG 1.1//EN" "http://www.w3.org/Graphics/SVG/1.1/DTD/svg11.dtd">
<svg width="426pt" height="110pt" viewBox="0 0 426 110" version="1.1" xmlns="http://www.w3.org/2000/svg">
<g id="#ffffffff">
<path fill="#ffffff" stroke="#ffffff" stroke-width="0.09375" opacity="1.00" d=" M 54.60 27.24 C 58.46 27.83 63.70 25.57 66.32 29.36 C 66.12 32.42 66.67 35.65 65.37 38.54 C 62.19 39.20 58.95 39.20 55.75 38.63 C 53.71 35.18 54.90 31.03 54.60 27.24 Z" />
<path fill="#ffffff" stroke="#ffffff" stroke-width="0.09375" opacity="1.00" d=" M 71.31 35.97 C 71.17 33.05 70.69 29.79 72.74 27.38 C 75.87 27.65 79.91 26.07 82.43 28.51 C 83.66 31.68 83.09 35.14 82.36 38.35 C 79.18 39.06 75.75 39.69 72.62 38.45 C 71.78 37.83 71.35 37.00 71.31 35.97 Z" />
<path fill="#ffffff" stroke="#ffffff" stroke-width="0.09375" opacity="1.00" d=" M 107.26 27.36 C 109.27 27.37 111.27 27.38 113.28 27.39 C 113.33 38.25 113.19 49.12 113.35 59.99 C 113.18 63.63 116.40 66.44 119.80 66.95 C 124.06 67.62 128.42 67.08 132.72 67.26 C 132.78 53.97 132.74 40.68 132.75 27.39 C 134.75 27.38 136.76 27.37 138.76 27.36 C 138.77 42.52 138.76 57.69 138.77 72.85 C 132.82 72.80 126.88 72.94 120.94 72.79 C 116.86 72.68 112.51 71.33 109.93 67.99 C 107.75 65.19 107.26 61.53 107.26 58.09 C 107.25 47.84 107.26 37.60 107.26 27.36 Z" />
<path fill="#ffffff" stroke="#ffffff" stroke-width="0.09375" opacity="1.00" d=" M 146.76 27.39 C 148.70 27.38 150.64 27.37 152.58 27.36 C 152.58 37.91 152.59 48.46 152.57 59.01 C 152.48 61.15 152.99 63.23 153.60 65.26 C 155.53 66.32 157.67 66.79 159.85 66.97 C 159.85 68.77 159.85 70.57 159.85 72.36 C 156.33 72.11 152.40 71.91 149.66 69.38 C 147.25 66.94 146.91 63.30 146.77 60.06 C 146.75 49.17 146.78 38.28 146.76 27.39 Z" />
<path fill="#ffffff" stroke="#ffffff" stroke-width="0.09375" opacity="1.00" d=" M 242.24 27.37 C 247.83 27.39 253.42 27.34 259.01 27.38 C 263.12 27.46 267.60 28.47 270.52 31.58 C 273.00 34.38 273.75 38.27 273.75 41.91 C 273.76 52.02 273.78 62.13 273.74 72.24 C 271.75 72.24 269.75 72.23 267.77 72.23 C 267.72 61.79 267.83 51.35 267.72 40.92 C 267.93 37.59 265.65 34.50 262.45 33.64 C 257.81 32.45 252.95 32.83 248.23 33.16 C 248.25 46.19 248.23 59.21 248.23 72.23 C 246.24 72.23 244.25 72.24 242.26 72.24 C 242.22 57.28 242.25 42.33 242.24 27.37 Z" />
<path fill="#ffffff" stroke="#ffffff" stroke-width="0.09375" opacity="1.00" d=" M 161.07 46.73 C 164.87 42.98 168.65 39.22 172.35 35.37 C 172.36 37.42 172.38 39.46 172.40 41.51 C 175.19 41.51 177.98 41.51 180.77 41.48 C 180.96 43.21 181.12 44.94 181.20 46.67 C 178.27 46.74 175.33 46.81 172.40 46.75 C 172.81 52.89 171.22 59.42 173.77 65.23 C 176.00 66.27 178.40 66.79 180.85 66.95 C 180.85 68.75 180.85 70.56 180.85 72.36 C 175.58 72.31 168.77 70.84 167.26 64.93 C 165.93 59.00 166.92 52.81 166.59 46.78 C 164.75 46.75 162.91 46.74 161.07 46.73 Z" />
<path fill="#ffffff" stroke="#ffffff" stroke-width="0.09375" opacity="1.00" d=" M 315.80 46.67 C 319.72 43.11 323.19 39.07 327.20 35.62 C 327.23 37.58 327.23 39.55 327.25 41.51 C 330.10 41.51 332.94 41.51 335.79 41.50 C 335.79 43.26 335.79 45.01 335.79 46.76 C 332.95 46.76 330.10 46.76 327.26 46.76 C 327.39 52.16 326.87 57.62 327.55 63.00 C 328.59 66.50 332.75 66.74 335.76 66.95 C 335.76 68.75 335.76 70.55 335.77 72.35 C 330.22 72.46 323.10 70.59 321.82 64.30 C 320.95 58.52 321.60 52.63 321.39 46.80 C 319.52 46.75 317.66 46.72 315.80 46.67 Z" />
<path fill="#ffffff" stroke="#ffffff" stroke-width="0.09375" opacity="1.00" d=" M 190.90 43.04 C 195.29 40.66 200.46 41.76 205.24 41.52 C 205.23 43.26 205.24 45.00 205.24 46.74 C 201.66 47.00 197.86 46.12 194.44 47.50 C 192.36 48.42 191.98 50.94 191.80 52.95 C 191.68 59.38 191.83 65.81 191.73 72.24 C 189.90 72.24 188.06 72.24 186.23 72.24 C 186.27 65.46 186.05 58.68 186.34 51.91 C 186.43 48.49 187.72 44.74 190.90 43.04 Z" />
<path fill="#ffffff" stroke="#ffffff" stroke-width="0.09375" opacity="1.00" d=" M 295.04 40.80 C 301.83 40.21 308.76 44.50 311.10 50.94 C 313.92 57.68 311.38 66.25 305.24 70.26 C 299.97 73.90 292.38 73.76 287.25 69.93 C 281.56 65.88 279.32 57.90 281.64 51.38 C 283.55 45.64 289.00 41.34 295.04 40.80 M 292.72 46.81 C 285.88 49.51 284.54 59.56 289.40 64.63 C 292.40 67.93 297.75 68.30 301.55 66.28 C 307.30 62.89 308.00 54.06 303.73 49.23 C 301.08 46.06 296.45 45.75 292.72 46.81 Z" />
<path fill="#ffffff" stroke="#ffffff" stroke-width="0.09375" opacity="1.00" d=" M 344.80 45.75 C 349.07 40.58 356.80 39.61 362.82 41.97 C 369.14 44.20 369.37 53.77 364.59 57.67 C 360.87 60.72 355.79 60.58 351.25 60.64 C 351.24 58.97 351.24 57.30 351.23 55.62 C 354.57 55.40 359.06 56.44 361.26 53.15 C 362.07 51.10 362.43 47.98 360.15 46.74 C 355.44 44.67 349.56 47.06 347.81 51.95 C 346.43 56.40 346.56 62.22 350.52 65.38 C 354.31 68.42 359.81 67.90 363.85 65.63 C 365.08 66.93 366.22 68.31 367.38 69.68 C 361.06 73.87 351.82 74.27 345.92 69.14 C 342.28 66.20 340.98 61.50 340.81 57.00 C 341.23 53.02 342.04 48.84 344.80 45.75 Z" />
<path fill="#ffffff" stroke="#ffffff" stroke-width="0.09375" opacity="1.00" d=" M 211.15 41.51 C 216.35 41.73 221.69 40.93 226.80 42.17 C 231.18 43.28 234.40 47.52 234.38 52.02 C 234.46 58.76 234.39 65.50 234.40 72.24 C 229.24 72.21 224.09 72.28 218.94 72.22 C 214.84 72.14 210.25 70.16 208.80 66.04 C 207.80 62.47 208.31 57.98 211.54 55.70 C 215.80 52.56 221.50 52.82 226.38 54.09 C 226.39 55.95 226.40 57.81 226.42 59.67 C 223.44 58.10 219.88 57.72 216.66 58.69 C 213.36 59.86 213.22 65.48 216.77 66.38 C 220.72 67.22 224.80 66.70 228.81 66.83 C 228.70 62.07 229.02 57.29 228.63 52.54 C 228.49 49.56 225.90 47.27 223.03 46.93 C 219.08 46.54 215.11 46.86 211.15 46.76 C 211.15 45.01 211.15 43.26 211.15 41.51 Z" />
<path fill="#ffffff" stroke="#ffffff" stroke-width="0.09375" opacity="1.00" d=" M 54.78 45.97 C 56.98 42.43 61.99 44.19 65.41 44.44 C 66.64 47.34 66.13 50.53 66.32 53.59 C 64.08 56.96 59.30 55.51 55.91 55.24 C 53.66 52.73 54.74 49.02 54.78 45.97 Z" />
<path fill="#ffffff" stroke="#ffffff" stroke-width="0.09375" opacity="1.00" d=" M 72.98 44.35 C 76.07 43.58 79.35 43.76 82.39 44.67 C 82.93 48.11 84.39 52.89 81.27 55.42 C 78.50 55.72 75.66 55.78 72.90 55.37 C 70.70 53.99 71.31 51.13 71.21 48.94 C 71.23 47.30 71.15 45.10 72.98 44.35 Z" />
<path fill="#ffffff" stroke="#ffffff" stroke-width="0.09375" opacity="1.00" d=" M 88.54 44.64 C 91.95 44.00 96.78 42.70 99.38 45.62 C 99.75 48.40 99.79 51.29 99.35 54.07 C 98.27 56.07 95.86 55.52 94.01 55.64 C 92.14 55.45 89.77 56.17 88.48 54.38 C 87.74 51.21 88.07 47.84 88.54 44.64 Z" />
<path fill="#ffffff" stroke="#ffffff" stroke-width="0.09375" opacity="1.00" d=" M 71.62 61.66 C 75.05 60.14 79.21 60.04 82.62 61.67 C 82.82 64.80 83.30 68.05 82.47 71.13 C 80.80 72.97 78.15 72.29 75.96 72.43 C 74.35 72.49 72.21 72.32 71.58 70.54 C 70.84 67.65 71.27 64.59 71.62 61.66 Z" />
<path fill="#ffffff" stroke="#ffffff" stroke-width="0.09375" opacity="1.00" d=" M 88.42 61.64 C 91.17 60.13 94.35 60.70 97.35 60.56 C 101.40 63.02 98.93 68.52 99.59 72.39 C 96.39 72.34 93.16 72.60 89.97 72.22 C 86.45 70.03 88.17 65.04 88.42 61.64 Z" />
</g>
</svg>
